<svg xmlns="http://www.w3.org/2000/svg" viewBox="0 0 400 300" width="400" height="300">
  <rect width="400" height="300" fill="#F2F6FC"/>
  <g fill="none" stroke="#1D4ED8" stroke-width="2">
    <path d="M60 60 Q200 20 340 60 Q380 150 340 240 Q200 280 60 240 Q20 150 60 60 Z" opacity="0.8"/>
  </g>
  <path d="M60 60 Q200 20 340 60 Q380 150 340 240 Q200 280 60 240 Q20 150 60 60 Z" fill="#5B9BD5" opacity="0.12"/>
  <g stroke="#0B1F3A" stroke-width="1.6" stroke-dasharray="5 6" opacity="0.55">
    <path d="M100 100 Q200 70 300 100"/>
    <path d="M100 150 Q200 120 300 150"/>
    <path d="M100 200 Q200 170 300 200"/>
  </g>
  <text x="200" y="260" text-anchor="middle" font-family="JetBrains Mono, monospace" font-size="10" letter-spacing="2" fill="#5A6B85">FABRIC &amp; PATTERN STUDY</text>
</svg>
